<?xml version="1.0" encoding="iso-8859-1"?>
<!-- Generator: Adobe Illustrator 19.0.0, SVG Export Plug-In . SVG Version: 6.00 Build 0)  -->
<svg version="1.1" id="Layer_1" xmlns="http://www.w3.org/2000/svg" xmlns:xlink="http://www.w3.org/1999/xlink" x="0px" y="0px"
	 viewBox="0 0 511.637 511.637" style="enable-background:new 0 0 511.637 511.637;" xml:space="preserve">
<g>
	<g>
		<path d="M494.751,263.991c-0.068-128.597-79.889-211.277-87.458-218.812C357.509-19.315,272.569,2.598,255.818,7.735
			c-16.759-5.12-101.683-27.059-151.475,37.444c-7.569,7.543-87.458,90.291-87.45,218.607c-0.094,2.091-2.048,51.49,19.61,78.703
			c10.035,12.595,18.432,28.314,25.685,48.051c18.816,51.302,47.411,78.43,82.697,78.43h25.6v34.133
			c0,4.719,3.814,8.533,8.533,8.533s8.533-3.814,8.533-8.533V468.97h13.338c2.364,1.664,4.71,3.336,7.04,5.052
			c13.653,10.104,27.784,20.548,47.659,20.548c0.043,0,0.068-0.008,0.111-0.008s0.077,0.008,0.119,0.008
			c19.874,0,33.997-10.445,47.659-20.548c2.321-1.715,4.676-3.388,7.031-5.052h13.577v34.133c0,4.719,3.814,8.533,8.533,8.533
			c4.719,0,8.533-3.814,8.533-8.533V468.97h25.6c35.285,0,63.881-27.128,82.697-78.43c7.253-19.738,15.65-35.456,25.685-48.051
			C496.33,315.874,494.913,268.027,494.751,263.991z M392.581,272.704c0,54.869-5.103,110.481-42.163,145.655
			c-6.793,6.451-14.37,12.254-22.153,17.775c-0.188,0.111-0.401,0.179-0.58,0.307c-5.359,3.797-10.837,7.458-16.299,11.102
			l-8.183,5.495c-2.193,1.493-4.318,3.081-6.468,4.651l-16.563,11.281h0.572c-7.765,4.915-15.787,8.491-25.045,8.525
			c-9.455-0.034-17.613-3.763-25.532-8.841l1.033-0.017l-21.931-14.831c-0.358-0.256-0.7-0.521-1.067-0.768l-8.303-5.564
			c-13.329-8.909-27.11-18.125-38.682-29.116c-38.69-36.719-41.933-93.935-41.933-144.666l0.23-77.79
			c0-5.768,1.126-11.358,3.345-16.614c0.87-2.057,1.971-3.951,3.183-5.751c0.358-0.529,0.759-1.016,1.143-1.527
			c0.956-1.263,1.988-2.458,3.106-3.576c0.452-0.444,0.887-0.904,1.357-1.331c1.493-1.331,3.072-2.577,4.77-3.652
			c0.111-0.06,0.205-0.154,0.324-0.23c1.826-1.135,3.78-2.065,5.803-2.884c0.563-0.23,1.143-0.41,1.732-0.614
			c1.519-0.538,3.089-0.981,4.693-1.331c0.657-0.145,1.314-0.299,1.98-0.41c1.894-0.316,3.814-0.512,5.777-0.572
			c0.316-0.009,0.631-0.051,0.947-0.051c1.596-0.009,3.208,0.205,4.813,0.375c0.922,0.102,1.826,0.085,2.756,0.247
			c2.526,0.435,5.052,1.092,7.552,1.997c13.022,4.71,38.033,10.325,83.251,10.325c45.227,0,70.238-5.615,83.251-10.325
			c20.335-7.347,42.249,1.126,49.937,19.311c2.227,5.257,3.345,10.846,3.345,16.614V272.704z"/>
	</g>
</g>
<g>
</g>
<g>
</g>
<g>
</g>
<g>
</g>
<g>
</g>
<g>
</g>
<g>
</g>
<g>
</g>
<g>
</g>
<g>
</g>
<g>
</g>
<g>
</g>
<g>
</g>
<g>
</g>
<g>
</g>
</svg>
