<?xml version="1.0" encoding="iso-8859-1"?>
<!-- Generator: Adobe Illustrator 19.0.0, SVG Export Plug-In . SVG Version: 6.00 Build 0)  -->
<svg version="1.1" id="Layer_1" xmlns="http://www.w3.org/2000/svg" xmlns:xlink="http://www.w3.org/1999/xlink" x="0px" y="0px"
	 viewBox="0 0 511.999 511.999" style="enable-background:new 0 0 511.999 511.999;" xml:space="preserve">
<g>
	<g>
		<path d="M417.837,75.826c-37.504-35.712-95.735-33.28-97.784-33.161h-76.8c-109.841,0-128.546-37.197-128.64-37.385
			c-1.22-2.97-4.002-4.992-7.194-5.257c-3.14-0.239-6.255,1.289-7.945,4.002c-1.971,3.166-47.932,79.352-32.29,236.416
			c2.807,28.134,15.573,54.852,35.951,75.238l5.222,5.214c3.84,41.907,15.036,81.391,45.38,110.208
			c6.69,6.349,13.892,12.015,21.248,17.348v55.014c0,4.71,3.823,8.533,8.533,8.533c4.719,0,8.533-3.823,8.533-8.533v-43.213
			c0.358,0.247,0.717,0.478,1.067,0.717c0.529,0.341,1.05,0.7,1.57,1.05l8.201,5.513c3.234,2.193,6.391,4.523,9.54,6.844
			c13.662,10.112,27.785,20.557,47.659,20.557c19.874,0,33.997-10.445,47.659-20.557c3.149-2.321,6.306-4.651,9.54-6.844
			l8.201-5.513l0.555-0.375l2.543-1.698v43.52c0,4.71,3.823,8.533,8.533,8.533c4.719,0,8.533-3.823,8.533-8.533v-55.339
			c7.202-5.24,14.234-10.803,20.787-17.024c30.276-28.74,41.574-68.088,45.517-109.935c23.27-23.552,36.096-54.707,36.096-87.851
			v-79.718C448.054,121.078,437.891,94.915,417.837,75.826z M396.854,273.066c0,54.861-5.103,110.481-42.163,145.655
			c-7.569,7.185-16.102,13.577-24.815,19.652c-4.625,3.234-9.293,6.4-13.986,9.532l-8.183,5.487
			c-3.422,2.33-6.767,4.804-10.095,7.27c-11.972,8.841-23.27,17.203-37.521,17.203c-14.251,0-25.549-8.363-37.513-17.203
			c-3.337-2.466-6.682-4.941-10.103-7.27l-2.935-1.963l-5.043-3.388c-4.745-3.183-9.481-6.383-14.174-9.651
			c-8.713-6.084-17.263-12.476-24.832-19.669c-38.69-36.727-41.933-93.943-41.933-144.666l0.23-77.79
			c0-5.768,1.126-11.358,3.345-16.623c5.811-13.747,19.772-21.948,35.029-21.948c4.915,0,9.958,0.853,14.916,2.645
			c13.013,4.702,38.025,10.325,83.243,10.325c45.227,0,70.238-5.623,83.251-10.325c20.335-7.356,42.249,1.135,49.937,19.285
			c2.227,5.282,3.345,10.88,3.345,16.64V273.066z"/>
	</g>
</g>
<g>
</g>
<g>
</g>
<g>
</g>
<g>
</g>
<g>
</g>
<g>
</g>
<g>
</g>
<g>
</g>
<g>
</g>
<g>
</g>
<g>
</g>
<g>
</g>
<g>
</g>
<g>
</g>
<g>
</g>
</svg>
