<?xml version="1.0" encoding="iso-8859-1"?>
<!-- Generator: Adobe Illustrator 19.0.0, SVG Export Plug-In . SVG Version: 6.00 Build 0)  -->
<svg version="1.1" id="Layer_1" xmlns="http://www.w3.org/2000/svg" xmlns:xlink="http://www.w3.org/1999/xlink" x="0px" y="0px"
	 viewBox="0 0 512.072 512.072" style="enable-background:new 0 0 512.072 512.072;" xml:space="preserve">
<g>
	<g>
		<path d="M434.012,112.927c-2.228-4.599-55.916-112.514-178.176-112.856c-0.557-0.045-1.249-0.063-1.94-0.072
			c-25.349,0.503-48.218,10.635-64.27,27.028c-15.396,0.216-79.899,6.297-115.263,91.828
			c-14.031,33.909-18.962,73.494-14.264,114.463c3.099,27.001,8.821,46.924,17.013,59.212c1.698,2.542,4.527,3.997,7.473,3.997
			c0.287,0,0.557-0.09,0.835-0.117c2.353,43.825,11.471,94.954,48.909,130.506c7.042,6.683,14.623,12.656,22.366,18.27v57.901
			c0,4.958,4.015,8.982,8.982,8.982s8.982-4.024,8.982-8.982v-45.487c1.015,0.683,2.03,1.365,3.045,2.048l8.354,5.614
			c3.404,2.299,6.719,4.761,10.033,7.204c14.381,10.635,29.256,21.639,50.176,21.639c20.929,0,35.804-11.003,50.185-21.639
			c3.315-2.443,6.629-4.904,10.033-7.204l8.614-5.785l0.072-0.054c1.078-0.719,2.138-1.437,3.207-2.147v45.81
			c0,4.958,4.015,8.982,8.982,8.982s8.982-4.024,8.982-8.982v-58.251c7.581-5.515,14.983-11.372,21.872-17.92
			c27.756-26.355,42.936-63.147,47.742-115.478C441.27,267.408,477.002,195.728,434.012,112.927z M345.849,413.894
			c-8.039,7.635-17.138,14.426-26.408,20.884c-4.824,3.359-9.692,6.674-14.588,9.935l-8.453,5.677
			c-3.602,2.443-7.114,5.039-10.626,7.635c-12.593,9.315-24.504,18.118-39.505,18.118c-14.992,0-26.902-8.803-39.496-18.118
			c-3.512-2.596-7.024-5.192-10.626-7.635l-4.357-2.919l-4.096-2.758c-4.815-3.225-9.611-6.485-14.39-9.791
			c-9.342-6.503-18.504-13.339-26.606-21.028c-35.364-33.576-42.245-84.92-43.745-127.129c0.135-0.117,0.278-0.269,0.404-0.386
			c0.97-0.844,1.94-1.797,2.928-2.785c0.476-0.476,0.961-0.916,1.437-1.428c1.015-1.078,2.021-2.3,3.027-3.548
			c1.114-1.365,2.183-2.865,3.252-4.428c0.494-0.719,0.988-1.392,1.464-2.165c0.799-1.249,1.545-2.632,2.299-4.006
			c0.467-0.862,0.925-1.707,1.383-2.614c0.701-1.419,1.365-2.91,2.021-4.455c0.467-1.078,0.898-2.192,1.329-3.341
			c0.584-1.536,1.141-3.108,1.662-4.752c0.449-1.419,0.844-2.919,1.249-4.419c0.422-1.581,0.853-3.162,1.222-4.851
			c0.431-1.967,0.773-4.087,1.114-6.207c0.243-1.437,0.512-2.802,0.701-4.312c0.485-3.764,0.853-7.716,1.042-11.929
			c0.772-17.633,2.416-30.936,5.3-43.134c0.916-3.862,1.904-7.509,2.928-11.048c0.314-1.069,0.638-2.084,0.952-3.126
			c0.755-2.461,1.536-4.842,2.335-7.132c0.368-1.042,0.737-2.084,1.114-3.09c0.898-2.407,1.832-4.689,2.785-6.881
			c0.278-0.629,0.539-1.311,0.817-1.922c1.24-2.704,2.506-5.228,3.818-7.572c0.323-0.584,0.665-1.096,0.997-1.653
			c1.024-1.716,2.048-3.323,3.09-4.815c0.467-0.647,0.934-1.267,1.392-1.877c1.015-1.302,2.039-2.506,3.072-3.602
			c0.431-0.458,0.862-0.952,1.302-1.374c0.198-0.189,0.413-0.314,0.611-0.503c0.584,1.841,1.419,3.557,2.165,5.318
			c0.422,0.997,0.755,2.03,1.231,3.009c1.087,2.228,2.398,4.321,3.737,6.387c0.512,0.79,0.925,1.635,1.473,2.398
			c1.5,2.093,3.216,4.015,4.976,5.901c0.584,0.62,1.06,1.32,1.671,1.922c2.452,2.407,5.093,4.635,7.958,6.602
			c15.171,10.438,30.289,15.746,45.793,15.746h0.189c0.485-0.018,50.778-4.294,115.541,50.041
			c19.205,16.115,29.534,40.268,27.648,64.62c-0.207,2.641-0.521,5.255-0.943,7.86c-2.928,18.216-11.066,35.481-24.298,51.443
			c-1.446,1.743-2.12,3.889-2.066,6.009c0.072,2.12,0.88,4.213,2.434,5.866c0.835,0.889,1.814,1.536,2.865,2.012
			c0.35,0.153,0.71,0.18,1.069,0.287c0.746,0.234,1.464,0.422,2.237,0.458c0.126,0.009,0.252,0.081,0.377,0.081
			c0.53,0,1.051-0.153,1.563-0.242c0.314-0.054,0.629-0.054,0.934-0.144c0.97-0.278,1.913-0.701,2.776-1.32
			c0.045-0.027,0.234-0.171,0.476-0.359c2.084-1.536,12.01-9.081,24.828-21.809C378.231,369.817,365.646,395.102,345.849,413.894z"
			/>
	</g>
</g>
<g>
</g>
<g>
</g>
<g>
</g>
<g>
</g>
<g>
</g>
<g>
</g>
<g>
</g>
<g>
</g>
<g>
</g>
<g>
</g>
<g>
</g>
<g>
</g>
<g>
</g>
<g>
</g>
<g>
</g>
</svg>
