<?xml version="1.0" encoding="iso-8859-1"?>
<!-- Generator: Adobe Illustrator 19.0.0, SVG Export Plug-In . SVG Version: 6.00 Build 0)  -->
<svg version="1.1" id="Layer_1" xmlns="http://www.w3.org/2000/svg" xmlns:xlink="http://www.w3.org/1999/xlink" x="0px" y="0px"
	 viewBox="0 0 504.058 504.058" style="enable-background:new 0 0 504.058 504.058;" xml:space="preserve">
<g>
	<g>
		<path d="M496.852,372.533c-17.911-40.149-23.544-116.147-25.301-157.884c-1.673-39.424-13.414-76.467-33.997-107.119
			C400.775,52.738,359.986,30.406,332.5,18.374c-55.987-24.499-120.201-24.499-176.188,0C123.971,32.531,86.97,53.156,57.795,98.741
			c-19.55,30.566-30.293,67.405-31.07,106.547l-0.111,5.598c-0.862,46.063-2.313,123.17-19.593,163.166
			c-5.777,13.389,0.316,29.065,13.594,34.944c6.298,2.79,29.218,4.412,81.604,7.219c17.289,0.922,33.613,1.792,37.888,2.423
			c0.41,0.06,0.828,0.085,1.229,0.085h0.299c1.417,1.485,2.782,3.004,4.292,4.437c6.69,6.349,13.892,12.023,21.248,17.357v55.006
			c0,4.71,3.814,8.533,8.533,8.533s8.533-3.823,8.533-8.533v-43.213c0.964,0.648,1.929,1.297,2.893,1.946l7.936,5.333
			c3.234,2.185,6.383,4.523,9.532,6.844c13.662,10.104,27.793,20.557,47.667,20.557c19.883,0,34.014-10.453,47.676-20.557
			c3.149-2.321,6.298-4.659,9.532-6.844l8.183-5.495l0.068-0.051c1.024-0.683,2.031-1.365,3.046-2.039v43.52
			c0,4.71,3.814,8.533,8.533,8.533s8.533-3.823,8.533-8.533v-55.339c7.202-5.239,14.234-10.803,20.779-17.024
			c1.51-1.434,2.876-2.953,4.292-4.437h0.29c0.563,0,1.126-0.051,1.681-0.171c7.279-1.451,30.123-2.782,52.215-4.07
			c39.415-2.295,58.684-3.644,65.118-6.144c6.861-2.662,12.186-7.868,14.976-14.652
			C500.009,386.861,499.881,379.343,496.852,372.533z M363.646,390.325c-0.171,0.273-0.367,0.546-0.538,0.819
			c-1.391,2.142-2.85,4.241-4.395,6.289c-0.401,0.529-0.845,1.041-1.254,1.57c-1.434,1.835-2.884,3.652-4.454,5.402
			c-1.946,2.185-3.968,4.326-6.135,6.383c-7.637,7.253-16.282,13.705-25.088,19.84c-4.582,3.191-9.207,6.34-13.858,9.438
			l-8.03,5.393c-3.422,2.321-6.758,4.787-10.095,7.253c-11.964,8.849-23.279,17.212-37.53,17.212
			c-14.242,0-25.557-8.363-37.521-17.212c-3.337-2.466-6.673-4.932-10.095-7.253l-4.139-2.773l-3.891-2.62
			c-4.574-3.063-9.131-6.161-13.67-9.301c-8.875-6.178-17.579-12.672-25.276-19.977c-2.125-2.014-4.113-4.105-6.025-6.238
			c-0.017-0.017-0.017-0.034-0.034-0.051c-1.749-1.946-3.379-3.951-4.958-5.99c-0.137-0.179-0.29-0.341-0.418-0.521
			c-1.664-2.176-3.234-4.403-4.719-6.673c-0.009-0.026-0.026-0.043-0.034-0.06c-21.111-32.41-25.31-75.025-25.719-117.538
			c29.124-4.028,129.254-24.943,174.908-124.979c12.416,6.332,37.367,19.908,59.298,37.077
			c24.311,19.046,38.827,49.058,38.827,80.273C388.803,310.692,385.483,356.09,363.646,390.325z"/>
	</g>
</g>
<g>
</g>
<g>
</g>
<g>
</g>
<g>
</g>
<g>
</g>
<g>
</g>
<g>
</g>
<g>
</g>
<g>
</g>
<g>
</g>
<g>
</g>
<g>
</g>
<g>
</g>
<g>
</g>
<g>
</g>
</svg>
